<svg width="121" height="39" viewBox="0 0 121 39" fill="none" xmlns="http://www.w3.org/2000/svg">
<path d="M113.21 0.397095C117.761 0.397095 120.749 2.99369 120.749 7.15383C120.749 14.1339 110.362 11.8165 109.525 16.4513H121V20.3602H105.337V17.7636C105.337 7.74016 116.84 12.0678 116.84 6.95839C116.84 5.1994 115.332 4.13843 113.182 4.13843C110.753 4.13843 109.246 5.61821 109.246 8.2148H105.337C105.337 3.49626 108.548 0.397095 113.21 0.397095Z" fill="#E2E2E2"/>
<path d="M70.466 13.3848C70.466 5.68603 77.0075 0 85.8636 0C94.8203 0 101.311 5.38411 101.311 13.3848C101.311 21.2345 94.8203 26.669 85.8636 26.669C77.0578 26.669 70.466 20.9829 70.466 13.3848ZM77.5106 13.3848C77.5106 17.3097 81.0833 20.1275 85.8636 20.1275C90.8954 20.1275 94.2668 17.3097 94.2668 13.3848C94.2668 9.3593 90.8954 6.49113 85.8636 6.49113C81.033 6.49113 77.5106 9.3593 77.5106 13.3848Z" fill="#E2E2E2"/>
<path d="M67.0927 15.0956H44.248C45.0028 18.7186 48.2232 21.1339 52.45 21.1339C55.4691 21.1339 57.8844 20.0269 59.1927 18.2154H66.338C64.4258 23.3479 59.0417 26.669 52.148 26.669C43.4932 26.669 37.0021 20.9829 37.0021 13.3848C37.0021 5.68603 43.4429 0 52.148 0C60.7526 0 67.1934 5.38411 67.1934 13.3848C67.1934 13.9383 67.1934 14.5421 67.0927 15.0956ZM44.248 11.5733H59.9475C59.243 8.00069 56.2742 5.68603 52.148 5.68603C48.0722 5.68603 45.0028 8.05101 44.248 11.5733Z" fill="#E2E2E2"/>
<path d="M25.0588 25.2097V21.939C22.4925 24.3543 18.8192 25.7632 14.6428 25.7632C6.28985 25.7632 0 20.3791 0 12.9823C0 5.43444 6.23953 0 14.6428 0C18.9199 0 22.5932 1.40893 25.1594 3.92487L25.8639 0.754785H32.1034V25.2097C32.1034 32.9085 25.6123 38.4939 16.7562 38.4939C8.65484 38.4939 2.61658 34.2168 1.00638 28.2289H8.05101C9.66121 30.7448 12.781 32.355 16.5549 32.355C21.5868 32.355 25.0588 29.4868 25.0588 25.2097ZM7.04464 12.9319C7.04464 16.7562 10.8689 19.574 16.1523 19.574C21.4861 19.574 25.0588 16.8568 25.0588 12.9319C25.0588 8.95675 21.4358 6.18922 16.1523 6.18922C10.8689 6.18922 7.04464 8.95675 7.04464 12.9319Z" fill="#E2E2E2"/>
<rect x="105.19" y="22.5113" width="15.6533" height="4.08346" fill="#FECA04"/>
</svg>
