<svg xmlns="http://www.w3.org/2000/svg" height="60px" viewBox="0 0 62 60">
  <path
    d="M61.2242 22.9489C61.1776 26.144 60.9599 29.4946 60.2136 32.7908C59.9881 33.7859 59.5139 34.6566 58.8376 35.3874C57.9591 36.328 56.8552 36.7634 55.5725 36.4446C54.2975 36.1259 53.6523 35.1775 53.3802 33.9647C53.007 32.3088 53.318 30.6452 53.489 28.9971C53.7456 26.4939 53.9632 23.9906 53.8544 21.4718C53.8 20.1502 53.6367 18.8053 52.6572 17.818C51.3434 16.4964 49.5243 16.6597 47.9384 18.1445C46.4924 19.4894 45.5206 21.1609 44.7121 22.9489C43.0796 26.5716 41.9757 30.3809 40.8018 34.1591C40.1643 36.1959 39.4491 38.2016 38.0109 39.8263C32.9966 45.4703 23.7144 44.8562 19.5631 38.4892C17.2464 34.9365 15.2718 31.1738 13.134 27.5045C12.6675 26.7115 12.17 25.9419 11.5325 25.2656C10.8406 24.5426 10.071 24.2083 9.06035 24.4648C7.99531 24.7369 7.62215 25.5532 7.44335 26.4861C7.17903 27.901 7.36561 29.3003 7.64548 30.6996C8.25185 33.7626 9.43351 36.6623 10.1798 39.6786C10.413 40.6115 10.5607 41.5522 10.4986 42.5162C10.4208 43.6201 9.96214 44.5296 8.92042 44.965C7.73099 45.4703 6.54933 45.3459 5.52316 44.5141C4.52808 43.7056 3.9839 42.5628 3.54855 41.4123C1.30963 35.5506 -0.284051 29.5491 0.0424586 23.1977C0.260132 19.0308 0.998666 14.9649 2.94218 11.2179C4.52031 8.16266 6.77478 5.87709 10.3742 5.34068C12.823 4.9753 14.9997 5.56612 16.8966 7.18313C19.1122 9.07222 20.6592 11.4822 22.2451 13.8688C23.4423 15.6568 24.4063 17.6081 25.8134 19.2484C27.1661 20.8343 28.7831 22.0238 30.9832 21.946C33.432 21.8605 34.9324 20.3912 35.873 18.2767C37.5056 14.5918 38.8427 10.7825 40.553 7.12093C41.8668 4.29896 43.7715 2.00561 46.6712 0.777314C51.0247 -1.06514 55.005 0.419708 57.345 4.67988C59.2574 8.17043 60.1903 11.9797 60.7344 15.8978C61.0454 18.1834 61.162 20.4767 61.2242 22.9489Z">
  </path>
  <path
    d="M53.2714 51.6119C52.7894 51.402 52.0586 51.2698 51.1179 51.2698H51.0013C50.4261 51.2698 49.6409 51.3398 48.8868 51.4797C48.7624 51.5031 48.708 51.5653 48.708 51.713V52.7936C48.708 52.9257 48.778 52.9724 48.9334 52.949C49.5942 52.848 50.2784 52.778 50.807 52.778H50.8847C51.631 52.778 52.2296 52.848 52.5872 53.089C52.9448 53.33 53.1236 53.6953 53.1236 54.4805V54.7137C52.5795 54.5971 51.9187 54.5194 51.3201 54.5194H51.1568C50.154 54.5194 49.2133 54.7604 48.6069 55.3201C48.1483 55.7477 47.8451 56.4007 47.8451 57.2325V57.3025C47.8451 58.9739 48.9956 60.0001 51.3356 60.0001H51.7554C52.6728 60.0001 53.5512 59.728 54.0721 59.2927C54.6785 58.7951 54.9117 58.0488 54.9117 56.8672V54.4572C54.9117 52.8091 54.2664 52.0473 53.2714 51.6119ZM53.1236 56.8283C53.1236 57.458 53.1003 57.8311 52.8749 58.0955C52.6339 58.3753 52.1985 58.5075 51.6155 58.5075H51.3278C50.2472 58.5075 49.6253 58.0721 49.6253 57.2481C49.6253 56.8672 49.773 56.5329 50.0063 56.3308C50.2783 56.0975 50.6826 55.9809 51.3667 55.9809H51.5222C52.0431 55.9809 52.6339 56.0353 53.1236 56.1597V56.8283ZM60.6101 51.2698H59.6461C58.2623 51.2698 57.1739 51.7518 56.7153 52.7547C56.5131 53.19 56.4509 53.7731 56.4509 54.395V59.6814C56.4509 59.798 56.5054 59.8446 56.6297 59.8446H58.0679C58.1846 59.8446 58.239 59.798 58.239 59.6814V55.2579C58.239 54.636 58.2545 54.1773 58.2856 53.8975C58.3711 53.1667 58.8143 52.8169 59.8482 52.8169H60.6178C60.7422 52.8169 60.7966 52.7547 60.7966 52.6303V51.4409C60.7966 51.3243 60.7344 51.2698 60.6101 51.2698ZM26.0466 59.8446H27.6092C27.7414 59.8446 27.8036 59.798 27.858 59.6969C28.8686 57.7923 30.4157 54.5427 30.5245 51.5964C30.5323 51.4797 30.4778 51.4253 30.3301 51.4253H28.8764C28.7054 51.4253 28.6587 51.4797 28.6509 51.6275C28.581 52.7003 28.3555 53.9519 28.029 55.0636C27.687 56.2141 27.2516 57.3103 26.8318 58.1266C26.412 57.3103 25.9767 56.2141 25.6346 55.0636C25.3003 53.9441 25.0749 52.6847 25.0049 51.6041C24.9971 51.4486 24.9116 51.4176 24.7639 51.4176H23.2946C23.1391 51.4176 23.0925 51.4875 23.1081 51.643C23.3102 54.5349 24.212 56.7739 25.7746 59.6891C25.829 59.8057 25.9067 59.8446 26.0466 59.8446ZM37.6377 56.0742C38.0264 56.2219 38.353 56.3385 38.7339 56.4707C39.5579 56.7661 39.9078 56.9993 39.9078 57.4969C39.9078 58.1499 39.3558 58.4919 38.112 58.4919H38.0653C37.3657 58.4919 36.5572 58.352 35.8497 58.1266C35.702 58.0799 35.6243 58.1343 35.6243 58.282V59.3549C35.6243 59.487 35.6476 59.5725 35.7953 59.6269C36.4716 59.8602 37.3968 59.9923 38.1586 59.9923H38.213C40.4209 59.9923 41.6181 59.0128 41.6181 57.4191V57.3958C41.6181 56.7816 41.4159 56.2297 41.0428 55.8565C40.6774 55.4912 40.1177 55.2113 39.247 54.8926C38.7883 54.7215 38.4307 54.5894 38.112 54.4728C37.3967 54.2084 37.1946 53.9674 37.1946 53.5943C37.1946 52.9801 37.7932 52.7469 38.7572 52.7469H38.8272C39.3791 52.7469 40.0555 52.8247 40.8717 52.9724C41.0195 53.0035 41.105 52.9646 41.105 52.8091V51.7052C41.105 51.5575 41.0661 51.5186 40.9184 51.4875C40.3898 51.3787 39.4258 51.2543 38.8816 51.2543H38.7494C37.6222 51.2543 36.7826 51.4642 36.2306 51.9462C35.7798 52.3427 35.4766 52.9413 35.4766 53.6487V53.7031C35.4766 54.3639 35.7098 54.9003 36.0985 55.2579C36.4872 55.6155 36.977 55.8254 37.6377 56.0742ZM46.5079 59.8446C46.6323 59.8446 46.7023 59.7746 46.7023 59.6658V58.4686C46.7023 58.3598 46.6323 58.2898 46.5079 58.2898H46.3136C45.7383 58.2898 45.3885 58.1499 45.1708 57.9244C44.8832 57.6212 44.8287 57.1393 44.8287 56.564V52.9179H46.4146C46.5313 52.9179 46.5935 52.8713 46.5935 52.7547V51.5886C46.5935 51.472 46.5313 51.4253 46.4146 51.4253H44.8287V49.9172C44.8287 49.8006 44.7666 49.7539 44.6499 49.7539H43.2117C43.0951 49.7539 43.0329 49.8006 43.0329 49.9172V56.665C43.0329 57.8389 43.2662 58.5852 43.7792 59.0983C44.2612 59.5803 45.0231 59.8446 46.1192 59.8446H46.5079ZM9.62008 51.2698H9.18474C7.93311 51.2698 7.10129 51.6041 6.69704 52.0939H6.68927C6.28502 51.6041 5.40655 51.2698 4.15493 51.2698H3.70403C2.28916 51.2698 1.1386 51.7596 0.672155 52.7702C0.470029 53.2056 0.407837 53.7809 0.407837 54.4106V59.658C0.407837 59.7747 0.477803 59.8524 0.594414 59.8524H2.01706C2.13368 59.8524 2.20364 59.7747 2.20364 59.658V55.289C2.20364 54.6671 2.21919 54.2084 2.25029 53.9286C2.3358 53.1978 2.87998 52.8402 3.91393 52.8402H4.03054C5.06449 52.8402 5.63977 53.1978 5.71751 53.9286C5.74861 54.2084 5.76416 54.6671 5.76416 55.289V59.658C5.76416 59.7747 5.83412 59.8524 5.95073 59.8524H7.37338C7.48999 59.8524 7.55996 59.7591 7.55996 59.6425V55.289C7.55996 54.6671 7.57551 54.2084 7.6066 53.9286C7.68434 53.1978 8.25962 52.8402 9.29357 52.8402H9.41018C10.4441 52.8402 10.9883 53.1978 11.0738 53.9286C11.1049 54.2084 11.1205 54.6671 11.1205 55.289V59.658C11.1205 59.7747 11.1904 59.8524 11.3071 59.8524H12.7297C12.8463 59.8524 12.9163 59.7591 12.9163 59.6425V54.4106C12.9163 53.7809 12.8463 53.2056 12.652 52.7702C12.1933 51.7596 11.035 51.2698 9.62008 51.2698ZM21.872 57.9555C22.043 57.3802 22.1441 56.7272 22.1441 55.6311C22.1441 54.5427 22.0508 53.8819 21.872 53.3066C21.4366 51.8451 20.2783 51.2621 18.4048 51.2621H18.1793C16.3058 51.2621 15.1552 51.8451 14.7121 53.3066C14.5411 53.8819 14.44 54.5427 14.44 55.6311C14.44 56.7195 14.5333 57.3802 14.7121 57.9555C15.1552 59.417 16.3058 60.0001 18.1793 60.0001H18.4048C20.2783 60.0001 21.4366 59.417 21.872 57.9555ZM20.255 56.8594C20.115 58.2276 19.4309 58.4375 18.3192 58.4375H18.2726C17.1687 58.4375 16.4768 58.2276 16.3369 56.8594C16.2902 56.4474 16.2591 56.1053 16.2591 55.6311C16.2591 55.1569 16.2902 54.8148 16.3369 54.4028C16.4768 53.0346 17.1609 52.8247 18.2726 52.8247H18.3192C19.4232 52.8247 20.115 53.0346 20.255 54.4028C20.3016 54.8148 20.3327 55.1569 20.3327 55.6311C20.3327 56.1131 20.2938 56.4474 20.255 56.8594ZM33.6186 51.4331H32.1804C32.0638 51.4331 32.0016 51.4797 32.0016 51.5964V59.6814C32.0016 59.798 32.056 59.8446 32.1804 59.8446H33.6186C33.7429 59.8446 33.7974 59.798 33.7974 59.6814V51.5964C33.7974 51.4797 33.7352 51.4331 33.6186 51.4331Z">
  </path>
</svg>
